<svg width="27" height="27" viewBox="0 0 27 27" fill="none" xmlns="http://www.w3.org/2000/svg">
<g clip-path="url(#clip0)">
<path d="M25.6875 23.0625H20.4375" stroke="black" stroke-width="2" stroke-linecap="round"/>
</g>
<path fill-rule="evenodd" clip-rule="evenodd" d="M3 12C3 10.8181 3.23279 9.64778 3.68508 8.55585C4.13738 7.46392 4.80031 6.47177 5.63604 5.63604C6.47177 4.80031 7.46392 4.13738 8.55585 3.68508C9.64778 3.23279 10.8181 3 12 3C13.1819 3 14.3522 3.23279 15.4442 3.68508C16.5361 4.13738 17.5282 4.80031 18.364 5.63604C19.1997 6.47177 19.8626 7.46392 20.3149 8.55585C20.7672 9.64778 21 10.8181 21 12C21 14.3869 20.0518 16.6761 18.364 18.364C16.6761 20.0518 14.3869 21 12 21C9.61305 21 7.32387 20.0518 5.63604 18.364C3.94821 16.6761 3 14.3869 3 12V12ZM5.07 13C5.31081 14.6662 6.14388 16.1899 7.4166 17.2919C8.68932 18.3939 10.3165 19.0005 12 19.0005C13.6835 19.0005 15.3107 18.3939 16.5834 17.2919C17.8561 16.1899 18.6892 14.6662 18.93 13H14.83C14.6234 13.5855 14.2403 14.0926 13.7334 14.4512C13.2265 14.8099 12.6209 15.0025 12 15.0025C11.3791 15.0025 10.7735 14.8099 10.2666 14.4512C9.75974 14.0926 9.3766 13.5855 9.17 13H5.07ZM18.93 11C18.6907 9.33261 17.8583 7.80739 16.5854 6.70413C15.3125 5.60087 13.6845 4.99354 12 4.99354C10.3155 4.99354 8.68753 5.60087 7.41463 6.70413C6.14173 7.80739 5.30929 9.33261 5.07 11H9.17C9.3766 10.4145 9.75974 9.90743 10.2666 9.54879C10.7735 9.19014 11.3791 8.99755 12 8.99755C12.6209 8.99755 13.2265 9.19014 13.7334 9.54879C14.2403 9.90743 14.6234 10.4145 14.83 11H18.93ZM12 13C12.2652 13 12.5196 12.8946 12.7071 12.7071C12.8946 12.5196 13 12.2652 13 12C13 11.7348 12.8946 11.4804 12.7071 11.2929C12.5196 11.1054 12.2652 11 12 11C11.7348 11 11.4804 11.1054 11.2929 11.2929C11.1054 11.4804 11 11.7348 11 12C11 12.2652 11.1054 12.5196 11.2929 12.7071C11.4804 12.8946 11.7348 13 12 13V13Z" fill="black"/>
<defs>
<clipPath id="clip0">
<rect width="7.875" height="7.875" fill="white" transform="translate(19.125 19.125)"/>
</clipPath>
</defs>
</svg>
