<svg width="40" height="40" viewBox="0 0 40 40" fill="none" xmlns="http://www.w3.org/2000/svg">
<path d="M17.0001 6C19.0479 5.99987 21.055 6.57137 22.7956 7.65015C24.5362 8.72893 25.9411 10.2722 26.8522 12.1061C27.7632 13.9401 28.1442 15.9919 27.9524 18.0307C27.7605 20.0695 27.0033 22.0142 25.7661 23.646L34.0601 31.94C34.326 32.208 34.4811 32.5664 34.4944 32.9437C34.5076 33.321 34.3782 33.6895 34.1318 33.9755C33.8854 34.2615 33.5401 34.4441 33.165 34.4869C32.7899 34.5296 32.4125 34.4293 32.1081 34.206L31.9401 34.06L23.6461 25.766C22.2552 26.8203 20.6334 27.5286 18.9147 27.8322C17.196 28.1359 15.4297 28.0262 13.7618 27.5123C12.0939 26.9983 10.5722 26.0949 9.32244 24.8765C8.0727 23.6582 7.13081 22.16 6.57457 20.5057C6.01834 18.8514 5.86373 17.0885 6.12353 15.3626C6.38333 13.6367 7.05007 11.9974 8.06867 10.5802C9.08727 9.16295 10.4285 8.00842 11.9815 7.212C13.5345 6.41559 15.2548 6.00014 17.0001 6ZM17.0001 9C14.8783 9 12.8435 9.84285 11.3432 11.3431C9.84292 12.8434 9.00007 14.8783 9.00007 17C9.00007 19.1217 9.84292 21.1566 11.3432 22.6569C12.8435 24.1571 14.8783 25 17.0001 25C19.1218 25 21.1566 24.1571 22.6569 22.6569C24.1572 21.1566 25.0001 19.1217 25.0001 17C25.0001 14.8783 24.1572 12.8434 22.6569 11.3431C21.1566 9.84285 19.1218 9 17.0001 9Z" fill="black"/>
</svg>
